<mxfile host="65bd71144e">
    <diagram id="kCQJUOl3QAmJ7Xl5BvwC" name="第 1 页">
        <mxGraphModel dx="349" dy="187" grid="1" gridSize="10" guides="1" tooltips="1" connect="1" arrows="1" fold="1" page="1" pageScale="1" pageWidth="3300" pageHeight="4681" math="0" shadow="0">
            <root>
                <mxCell id="0"/>
                <mxCell id="1" parent="0"/>
                <mxCell id="4" style="edgeStyle=none;html=1;entryX=0.5;entryY=0;entryDx=0;entryDy=0;fillColor=#f0a30a;strokeColor=#BD7000;" edge="1" parent="1" source="2" target="3">
                    <mxGeometry relative="1" as="geometry"/>
                </mxCell>
                <mxCell id="2" value="GET_A" style="ellipse;whiteSpace=wrap;html=1;fillColor=#e51400;fontColor=#ffffff;strokeColor=#B20000;direction=west;" vertex="1" parent="1">
                    <mxGeometry x="200" y="110" width="120" height="80" as="geometry"/>
                </mxCell>
                <mxCell id="7" style="edgeStyle=none;html=1;entryX=0.5;entryY=0;entryDx=0;entryDy=0;fontColor=#FFFFFF;fillColor=#f0a30a;strokeColor=#BD7000;" edge="1" parent="1" source="3" target="6">
                    <mxGeometry relative="1" as="geometry"/>
                </mxCell>
                <mxCell id="3" value="GET_B" style="ellipse;whiteSpace=wrap;html=1;fillColor=#e51400;fontColor=#ffffff;strokeColor=#B20000;" vertex="1" parent="1">
                    <mxGeometry x="200" y="260" width="120" height="80" as="geometry"/>
                </mxCell>
                <mxCell id="5" value="握手条件" style="text;strokeColor=none;align=center;fillColor=none;html=1;verticalAlign=middle;whiteSpace=wrap;rounded=0;fontColor=#FFB366;" vertex="1" parent="1">
                    <mxGeometry x="260" y="210" width="60" height="30" as="geometry"/>
                </mxCell>
                <mxCell id="10" value="" style="edgeStyle=none;html=1;fontColor=#FFFFFF;fillColor=#f0a30a;strokeColor=#BD7000;" edge="1" parent="1" source="6" target="9">
                    <mxGeometry relative="1" as="geometry"/>
                </mxCell>
                <mxCell id="6" value="&lt;font color=&quot;#ffffff&quot;&gt;UNPACK&lt;/font&gt;" style="ellipse;whiteSpace=wrap;html=1;fontColor=#ffffff;fillColor=#e51400;strokeColor=#B20000;" vertex="1" parent="1">
                    <mxGeometry x="200" y="400" width="120" height="80" as="geometry"/>
                </mxCell>
                <mxCell id="8" value="握手条件" style="text;strokeColor=none;align=center;fillColor=none;html=1;verticalAlign=middle;whiteSpace=wrap;rounded=0;fontColor=#FFB366;" vertex="1" parent="1">
                    <mxGeometry x="260" y="350" width="60" height="30" as="geometry"/>
                </mxCell>
                <mxCell id="14" value="" style="edgeStyle=none;html=1;fontColor=#FFFFFF;fillColor=#f0a30a;strokeColor=#BD7000;" edge="1" parent="1" source="9" target="12">
                    <mxGeometry relative="1" as="geometry"/>
                </mxCell>
                <mxCell id="9" value="SPECIAL_CASES" style="ellipse;whiteSpace=wrap;html=1;fontColor=#ffffff;fillColor=#e51400;strokeColor=#B20000;" vertex="1" parent="1">
                    <mxGeometry x="200" y="540" width="120" height="80" as="geometry"/>
                </mxCell>
                <mxCell id="15" value="" style="edgeStyle=none;html=1;fontColor=#FFFFFF;fillColor=#f0a30a;strokeColor=#BD7000;" edge="1" parent="1" source="12" target="13">
                    <mxGeometry relative="1" as="geometry"/>
                </mxCell>
                <mxCell id="12" value="NORMALISE_A" style="ellipse;whiteSpace=wrap;html=1;fontColor=#ffffff;fillColor=#e51400;strokeColor=#B20000;" vertex="1" parent="1">
                    <mxGeometry x="410" y="540" width="120" height="80" as="geometry"/>
                </mxCell>
                <mxCell id="36" value="" style="edgeStyle=none;html=1;fontColor=#FFFFFF;fillColor=#f0a30a;strokeColor=#BD7000;" edge="1" parent="1" source="13" target="35">
                    <mxGeometry relative="1" as="geometry"/>
                </mxCell>
                <mxCell id="13" value="NORMALISE_B" style="ellipse;whiteSpace=wrap;html=1;fontColor=#ffffff;fillColor=#e51400;strokeColor=#B20000;" vertex="1" parent="1">
                    <mxGeometry x="630" y="540" width="120" height="80" as="geometry"/>
                </mxCell>
                <mxCell id="18" value="" style="edgeStyle=none;html=1;fontColor=#FFFFFF;fillColor=#f0a30a;strokeColor=#BD7000;" edge="1" parent="1" source="17" target="2">
                    <mxGeometry relative="1" as="geometry"/>
                </mxCell>
                <mxCell id="17" value="PUT_Z" style="ellipse;whiteSpace=wrap;html=1;fontColor=#ffffff;fillColor=#e51400;strokeColor=#B20000;" vertex="1" parent="1">
                    <mxGeometry x="410" y="110" width="120" height="80" as="geometry"/>
                </mxCell>
                <mxCell id="20" value="" style="edgeStyle=none;html=1;fontColor=#FFFFFF;fillColor=#f0a30a;strokeColor=#BD7000;" edge="1" parent="1" source="19" target="17">
                    <mxGeometry relative="1" as="geometry"/>
                </mxCell>
                <mxCell id="19" value="PACK" style="ellipse;whiteSpace=wrap;html=1;fontColor=#ffffff;fillColor=#e51400;strokeColor=#B20000;" vertex="1" parent="1">
                    <mxGeometry x="620" y="110" width="120" height="80" as="geometry"/>
                </mxCell>
                <mxCell id="22" value="" style="edgeStyle=none;html=1;fontColor=#FFFFFF;fillColor=#f0a30a;strokeColor=#BD7000;" edge="1" parent="1" source="21" target="19">
                    <mxGeometry relative="1" as="geometry"/>
                </mxCell>
                <mxCell id="21" value="ROUND" style="ellipse;whiteSpace=wrap;html=1;fontColor=#ffffff;fillColor=#e51400;strokeColor=#B20000;" vertex="1" parent="1">
                    <mxGeometry x="830" y="110" width="120" height="80" as="geometry"/>
                </mxCell>
                <mxCell id="24" value="" style="curved=1;endArrow=classic;html=1;fontColor=#FFFFFF;exitX=0.417;exitY=1;exitDx=0;exitDy=0;exitPerimeter=0;entryX=0.914;entryY=0.746;entryDx=0;entryDy=0;entryPerimeter=0;fillColor=#f0a30a;strokeColor=#BD7000;" edge="1" parent="1" source="2" target="2">
                    <mxGeometry width="50" height="50" relative="1" as="geometry">
                        <mxPoint x="270" y="105" as="sourcePoint"/>
                        <mxPoint x="210" y="120" as="targetPoint"/>
                        <Array as="points">
                            <mxPoint x="240" y="80"/>
                            <mxPoint x="220" y="80"/>
                            <mxPoint x="210" y="95"/>
                        </Array>
                    </mxGeometry>
                </mxCell>
                <mxCell id="25" value="" style="curved=1;endArrow=classic;html=1;fontColor=#FFFFFF;exitX=0.417;exitY=1;exitDx=0;exitDy=0;exitPerimeter=0;entryX=0;entryY=0.5;entryDx=0;entryDy=0;fillColor=#f0a30a;strokeColor=#BD7000;" edge="1" parent="1" target="3">
                    <mxGeometry width="50" height="50" relative="1" as="geometry">
                        <mxPoint x="219.96000000000004" y="270" as="sourcePoint"/>
                        <mxPoint x="160.31999999999994" y="290.32" as="targetPoint"/>
                        <Array as="points">
                            <mxPoint x="190" y="240"/>
                            <mxPoint x="170" y="230"/>
                            <mxPoint x="170" y="260"/>
                        </Array>
                    </mxGeometry>
                </mxCell>
                <mxCell id="30" value="" style="curved=1;endArrow=classic;html=1;fontColor=#FFFFFF;fillColor=#f0a30a;strokeColor=#BD7000;" edge="1" parent="1" source="12" target="12">
                    <mxGeometry width="50" height="50" relative="1" as="geometry">
                        <mxPoint x="580" y="650" as="sourcePoint"/>
                        <mxPoint x="430" y="660" as="targetPoint"/>
                        <Array as="points">
                            <mxPoint x="530" y="690"/>
                        </Array>
                    </mxGeometry>
                </mxCell>
                <mxCell id="32" value="" style="curved=1;endArrow=classic;html=1;fontColor=#FFFFFF;fillColor=#f0a30a;strokeColor=#BD7000;" edge="1" parent="1">
                    <mxGeometry width="50" height="50" relative="1" as="geometry">
                        <mxPoint x="669.4954162147977" y="620.0017369395372" as="sourcePoint"/>
                        <mxPoint x="710.5045837852023" y="620.0017369395374" as="targetPoint"/>
                        <Array as="points">
                            <mxPoint x="630" y="680"/>
                            <mxPoint x="750" y="692.41"/>
                        </Array>
                    </mxGeometry>
                </mxCell>
                <mxCell id="33" value="非规格形式" style="text;strokeColor=none;align=center;fillColor=none;html=1;verticalAlign=middle;whiteSpace=wrap;rounded=0;fontColor=#FFB366;" vertex="1" parent="1">
                    <mxGeometry x="430" y="690" width="80" height="30" as="geometry"/>
                </mxCell>
                <mxCell id="34" value="非规格形式" style="text;strokeColor=none;align=center;fillColor=none;html=1;verticalAlign=middle;whiteSpace=wrap;rounded=0;fontColor=#FFB366;" vertex="1" parent="1">
                    <mxGeometry x="650" y="690" width="80" height="30" as="geometry"/>
                </mxCell>
                <mxCell id="38" value="" style="edgeStyle=none;html=1;fontColor=#FFFFFF;fillColor=#f0a30a;strokeColor=#BD7000;" edge="1" parent="1" source="35" target="37">
                    <mxGeometry relative="1" as="geometry"/>
                </mxCell>
                <mxCell id="35" value="&lt;font color=&quot;#ffffff&quot;&gt;DIVIDE_0&lt;/font&gt;" style="ellipse;whiteSpace=wrap;html=1;fontColor=#ffffff;fillColor=#e51400;strokeColor=#B20000;" vertex="1" parent="1">
                    <mxGeometry x="830" y="540" width="120" height="80" as="geometry"/>
                </mxCell>
                <mxCell id="52" value="" style="edgeStyle=none;html=1;fontColor=#FFB366;entryX=0;entryY=0.5;entryDx=0;entryDy=0;fillColor=#f0a30a;strokeColor=#BD7000;" edge="1" parent="1" source="37" target="50">
                    <mxGeometry relative="1" as="geometry">
                        <mxPoint x="1259.9999999999952" y="580" as="targetPoint"/>
                    </mxGeometry>
                </mxCell>
                <mxCell id="37" value="DIVIDE_1" style="ellipse;whiteSpace=wrap;html=1;fontColor=#ffffff;direction=west;fillColor=#e51400;strokeColor=#B20000;" vertex="1" parent="1">
                    <mxGeometry x="1060" y="540" width="120" height="80" as="geometry"/>
                </mxCell>
                <mxCell id="40" value="" style="edgeStyle=none;html=1;fontColor=#FFFFFF;fillColor=#f0a30a;strokeColor=#BD7000;" edge="1" parent="1" source="39" target="21">
                    <mxGeometry relative="1" as="geometry"/>
                </mxCell>
                <mxCell id="39" value="NORMALISE_2" style="ellipse;whiteSpace=wrap;html=1;fontColor=#ffffff;fillColor=#e51400;strokeColor=#B20000;" vertex="1" parent="1">
                    <mxGeometry x="1060" y="110" width="120" height="80" as="geometry"/>
                </mxCell>
                <mxCell id="41" value="" style="curved=1;endArrow=classic;html=1;fontColor=#FFFFFF;fillColor=#f0a30a;strokeColor=#BD7000;" edge="1" parent="1">
                    <mxGeometry width="50" height="50" relative="1" as="geometry">
                        <mxPoint x="1099.4954162147978" y="109.99999999999997" as="sourcePoint"/>
                        <mxPoint x="1140.5045837852022" y="109.99999999999986" as="targetPoint"/>
                        <Array as="points">
                            <mxPoint x="1060" y="50.00173693953727"/>
                            <mxPoint x="1180" y="37.5917369395373"/>
                        </Array>
                    </mxGeometry>
                </mxCell>
                <mxCell id="42" value="结果为非规格数" style="text;strokeColor=none;align=center;fillColor=none;html=1;verticalAlign=middle;whiteSpace=wrap;rounded=0;fontColor=#FFB366;" vertex="1" parent="1">
                    <mxGeometry x="1075" y="20" width="90" height="30" as="geometry"/>
                </mxCell>
                <mxCell id="49" value="" style="edgeStyle=none;html=1;fontColor=#FFB366;entryX=1;entryY=0.5;entryDx=0;entryDy=0;fillColor=#f0a30a;strokeColor=#BD7000;" edge="1" parent="1" source="43" target="39">
                    <mxGeometry relative="1" as="geometry">
                        <mxPoint x="1220" y="150" as="targetPoint"/>
                    </mxGeometry>
                </mxCell>
                <mxCell id="43" value="NORMALISE_1" style="ellipse;whiteSpace=wrap;html=1;fontColor=#ffffff;fillColor=#e51400;strokeColor=#B20000;direction=west;" vertex="1" parent="1">
                    <mxGeometry x="1300" y="110" width="120" height="80" as="geometry"/>
                </mxCell>
                <mxCell id="45" value="" style="curved=1;endArrow=classic;html=1;fontColor=#FFFFFF;fillColor=#f0a30a;strokeColor=#BD7000;" edge="1" parent="1">
                    <mxGeometry width="50" height="50" relative="1" as="geometry">
                        <mxPoint x="1339.4954162147978" y="110" as="sourcePoint"/>
                        <mxPoint x="1380.5045837852022" y="109.99999999999994" as="targetPoint"/>
                        <Array as="points">
                            <mxPoint x="1300" y="50.00173693953727"/>
                            <mxPoint x="1420" y="37.5917369395373"/>
                        </Array>
                    </mxGeometry>
                </mxCell>
                <mxCell id="46" value="结果为规格数，形式非规格化" style="text;strokeColor=none;align=center;fillColor=none;html=1;verticalAlign=middle;whiteSpace=wrap;rounded=0;fontColor=#FFB366;" vertex="1" parent="1">
                    <mxGeometry x="1277.5" y="20" width="165" height="30" as="geometry"/>
                </mxCell>
                <mxCell id="60" style="edgeStyle=none;html=1;entryX=0.5;entryY=1;entryDx=0;entryDy=0;fontColor=#FFFFFF;fillColor=#f0a30a;strokeColor=#BD7000;" edge="1" parent="1" source="50" target="56">
                    <mxGeometry relative="1" as="geometry"/>
                </mxCell>
                <mxCell id="50" value="DIVIDE_2" style="ellipse;whiteSpace=wrap;html=1;fontColor=#ffffff;fillColor=#e51400;strokeColor=#B20000;" vertex="1" parent="1">
                    <mxGeometry x="1300" y="540" width="120" height="80" as="geometry"/>
                </mxCell>
                <mxCell id="53" value="" style="curved=1;endArrow=classic;html=1;fontColor=#FFB366;entryX=0.5;entryY=1;entryDx=0;entryDy=0;fillColor=#f0a30a;strokeColor=#BD7000;" edge="1" parent="1" target="17">
                    <mxGeometry width="50" height="50" relative="1" as="geometry">
                        <mxPoint x="300" y="550" as="sourcePoint"/>
                        <mxPoint x="350" y="500" as="targetPoint"/>
                        <Array as="points">
                            <mxPoint x="350" y="550"/>
                            <mxPoint x="460" y="400"/>
                        </Array>
                    </mxGeometry>
                </mxCell>
                <mxCell id="54" value="出现特殊数值" style="text;strokeColor=none;align=center;fillColor=none;html=1;verticalAlign=middle;whiteSpace=wrap;rounded=0;fontColor=#FFB366;" vertex="1" parent="1">
                    <mxGeometry x="450" y="350" width="80" height="30" as="geometry"/>
                </mxCell>
                <mxCell id="55" value="规格数与非规格数" style="text;strokeColor=none;align=center;fillColor=none;html=1;verticalAlign=middle;whiteSpace=wrap;rounded=0;fontColor=#FFB366;" vertex="1" parent="1">
                    <mxGeometry x="310" y="580" width="100" height="30" as="geometry"/>
                </mxCell>
                <mxCell id="58" value="" style="edgeStyle=none;html=1;fontColor=#FFFFFF;entryX=0.5;entryY=0;entryDx=0;entryDy=0;fillColor=#f0a30a;strokeColor=#BD7000;" edge="1" parent="1" source="56" target="43">
                    <mxGeometry relative="1" as="geometry">
                        <mxPoint x="1360" y="250" as="targetPoint"/>
                    </mxGeometry>
                </mxCell>
                <mxCell id="56" value="&lt;font color=&quot;#ffffff&quot;&gt;DIVIDE_3&lt;/font&gt;" style="ellipse;whiteSpace=wrap;html=1;fontColor=#ffffff;fillColor=#e51400;strokeColor=#B20000;" vertex="1" parent="1">
                    <mxGeometry x="1300" y="330" width="120" height="80" as="geometry"/>
                </mxCell>
                <mxCell id="61" value="" style="curved=1;endArrow=classic;html=1;fontColor=#FFFFFF;entryX=0.417;entryY=1;entryDx=0;entryDy=0;entryPerimeter=0;fillColor=#f0a30a;strokeColor=#BD7000;" edge="1" parent="1" source="50" target="37">
                    <mxGeometry width="50" height="50" relative="1" as="geometry">
                        <mxPoint x="1290" y="530" as="sourcePoint"/>
                        <mxPoint x="1240" y="480" as="targetPoint"/>
                        <Array as="points">
                            <mxPoint x="1290" y="480"/>
                            <mxPoint x="1150" y="510"/>
                        </Array>
                    </mxGeometry>
                </mxCell>
                <mxCell id="62" value="count ==&amp;nbsp;位数" style="text;strokeColor=none;align=center;fillColor=none;html=1;verticalAlign=middle;whiteSpace=wrap;rounded=0;fontColor=#FFB366;" vertex="1" parent="1">
                    <mxGeometry x="1360" y="460" width="165" height="30" as="geometry"/>
                </mxCell>
                <mxCell id="63" value="count !=&amp;nbsp;位数" style="text;strokeColor=none;align=center;fillColor=none;html=1;verticalAlign=middle;whiteSpace=wrap;rounded=0;fontColor=#FFB366;" vertex="1" parent="1">
                    <mxGeometry x="1160" y="460" width="165" height="30" as="geometry"/>
                </mxCell>
            </root>
        </mxGraphModel>
    </diagram>
</mxfile>